# xmcd
#
# Track frame offsets: 
#        150
#        14235
#        31128
#        49764
#        69114
#        82047
#        101406
#        119553
#        138554
#        152373
#        172381
#
# Disc length: 2570 seconds
#
# Revision: 0
# Processed by: cddbd v1.5.2PL0 Copyright (c) Steve Scherf et al.
# Submitted via: ExactAudioCopyFreeDBPlugin 1.0
#
DISCID=930a080b
DTITLE=Bluesrudi und Igor Flach - 1A Blues Vol.2
DYEAR=2008
DGENRE=Blues
TTITLE0=01. - Gubenpolka
TTITLE1=02 - Oh Baby
TTITLE2=03. Goin - Down The Road
TTITLE3=04. - Slider
TTITLE4=05 - Rock my Baby
TTITLE5=06 - Red Headed Woman
TTITLE6=07 - All the Love
TTITLE7=08 - Ride the River
TTITLE8=09 - Key to the Highway
TTITLE9=10 - Walkin by myself
TTITLE10=11 - Cajun moon
EXTD=
EXTT0=
EXTT1=
EXTT2=
EXTT3=
EXTT4=
EXTT5=
EXTT6=
EXTT7=
EXTT8=
EXTT9=
EXTT10=
PLAYORDER=
